
        <svg xmlns="http://www.w3.org/2000/svg" xmlns:xlink="http://www.w3.org/1999/xlink" version="1.1" width="3200" height="900" viewBox="0 0 3200 900">
			
			<g transform="scale(11.5) translate(-12, -12)">
				<defs id="SvgjsDefs2360"/><g id="SvgjsG2361" featureKey="rootContainer" transform="matrix(1,0,0,1,0,0)" fill="#1110"><rect xmlns="http://www.w3.org/2000/svg" width="299" height="105" rx="10" ry="10"/></g><g id="SvgjsG2362" featureKey="JiLV9t-0" transform="matrix(0.9964499863210099,0,0,0.9964499863210099,15.005792584933687,7.175688790083253)" fill="#000000"><path xmlns="http://www.w3.org/2000/svg" d="M59.335,77.083c0,0-0.07-0.99-0.195-2.725c-0.118-1.731-0.287-4.206-0.489-7.178c-0.098-1.484-0.204-3.092-0.314-4.794  c-0.108-1.7-0.222-3.492-0.341-5.35c-0.112-1.854-0.255-3.77-0.357-5.718c-0.117-1.945-0.237-3.921-0.355-5.898  c-0.061-0.988-0.132-1.976-0.219-2.958c-0.081-0.983-0.17-1.962-0.261-2.933c-0.088-0.971-0.184-1.933-0.258-2.884  c-0.075-0.951-0.127-1.892-0.168-2.816c-0.084-1.847-0.076-3.638-0.033-5.334c0.005-0.848,0.042-1.673,0.063-2.472  c0.037-0.799,0.072-1.571,0.107-2.312c0.031-0.74,0.077-1.451,0.121-2.127c0.051-0.677,0.099-1.319,0.145-1.923  c0.08-1.202,0.189-2.262,0.283-3.135c0.068-0.864,0.14-1.553,0.202-2.027c0.057-0.473,0.097-0.73,0.097-0.73l0.485-0.075  c-0.001,0,0.102,0.235,0.272,0.684c0.177,0.448,0.415,1.11,0.698,1.967c0.255,0.854,0.535,1.893,0.824,3.096  c0.287,1.203,0.542,2.557,0.799,4.044c0.257,1.486,0.462,3.094,0.654,4.801c0.193,1.706,0.32,3.505,0.383,5.37  c0.023,0.933,0.022,1.879,0.007,2.84c-0.017,0.96-0.053,1.932-0.086,2.911c-0.087,1.958-0.163,3.947-0.199,5.933  c-0.046,1.986-0.091,3.971-0.136,5.925c-0.046,1.953-0.117,3.877-0.19,5.737c-0.074,1.861-0.133,3.657-0.22,5.363  c-0.082,1.704-0.159,3.315-0.23,4.805c-0.072,1.486-0.157,2.851-0.225,4.06c-0.066,1.207-0.132,2.261-0.189,3.128  c-0.11,1.734-0.185,2.727-0.185,2.727H59.335z"/><path xmlns="http://www.w3.org/2000/svg" d="M31.729,12.87c0,0,0.089,1.015,0.246,2.792c0.079,0.889,0.167,1.967,0.266,3.205c0.097,1.237,0.218,2.633,0.329,4.157  c0.112,1.523,0.235,3.174,0.364,4.92c0.132,1.746,0.249,3.587,0.378,5.492c0.127,1.905,0.267,3.873,0.374,5.874  c0.114,2.001,0.229,4.033,0.344,6.066c0.107,2.033,0.268,4.066,0.43,6.066c0.074,1,0.159,1.994,0.215,2.974  c0.056,0.981,0.093,1.951,0.113,2.907c0.032,1.907-0.014,3.754-0.111,5.504c-0.037,0.875-0.102,1.727-0.16,2.551  c-0.074,0.825-0.134,1.622-0.218,2.386c-0.151,1.531-0.333,2.932-0.514,4.173c-0.047,0.312-0.088,0.611-0.136,0.901  c-0.052,0.292-0.104,0.573-0.152,0.845c-0.104,0.541-0.2,1.036-0.297,1.482c-0.189,0.894-0.356,1.59-0.484,2.063  c-0.122,0.475-0.198,0.725-0.198,0.725l-0.489-0.024c0,0-0.069-0.258-0.175-0.736c-0.113-0.48-0.256-1.181-0.417-2.068  c-0.083-0.442-0.163-0.932-0.25-1.463c-0.084-0.532-0.175-1.11-0.272-1.726c-0.192-1.237-0.385-2.632-0.549-4.152  c-0.091-0.761-0.158-1.553-0.239-2.372c-0.061-0.818-0.149-1.668-0.205-2.539c-0.137-1.744-0.225-3.585-0.237-5.488  c-0.001-0.953,0.015-1.921,0.048-2.9c0.035-0.979,0.083-1.974,0.131-2.976c0.103-2.002,0.201-4.036,0.249-6.07  c0.05-2.034,0.1-4.067,0.149-6.069c0.04-2.002,0.113-3.973,0.174-5.88c0.066-1.908,0.113-3.751,0.181-5.5  c0.064-1.749,0.125-3.402,0.181-4.928c0.063-1.526,0.119-2.926,0.169-4.166c0.049-1.24,0.097-2.321,0.14-3.212  c0.085-1.782,0.134-2.8,0.134-2.8L31.729,12.87z"/><path xmlns="http://www.w3.org/2000/svg" d="M5.012,35.547c0,0,1.219-0.067,3.351-0.186c1.066-0.062,2.361-0.13,3.847-0.204c1.485-0.076,3.161-0.161,4.988-0.253  c1.828-0.089,3.808-0.184,5.901-0.285c2.094-0.096,4.303-0.196,6.586-0.301c2.285-0.102,4.645-0.219,7.042-0.307  c2.398-0.097,4.833-0.196,7.269-0.294c2.437-0.103,4.87-0.243,7.266-0.403c1.198-0.073,2.386-0.153,3.56-0.213  c1.174-0.057,2.334-0.101,3.475-0.125c2.281-0.042,4.486-0.011,6.578,0.067c1.047,0.029,2.063,0.081,3.047,0.121  c0.985,0.058,1.935,0.094,2.849,0.16c1.826,0.11,3.499,0.244,4.983,0.375c0.741,0.063,1.436,0.127,2.078,0.191  c0.642,0.065,1.23,0.117,1.765,0.179c1.064,0.106,1.899,0.189,2.47,0.246c0.146,0.018,0.265,0.022,0.369,0.026  c0.106,0.005,0.196,0.01,0.268,0.014c0.146,0.009,0.222,0.014,0.222,0.014l0.116,0.476c0,0-0.074,0.031-0.219,0.089  c-0.072,0.03-0.164,0.064-0.273,0.106c-0.109,0.042-0.239,0.091-0.378,0.132c-0.281,0.088-0.634,0.198-1.046,0.31  c-0.411,0.103-0.887,0.229-1.419,0.348c-0.531,0.119-1.12,0.241-1.763,0.369c-0.642,0.118-1.336,0.25-2.078,0.369  c-0.372,0.063-0.755,0.122-1.149,0.18c-0.395,0.058-0.802,0.125-1.217,0.179c-0.833,0.11-1.71,0.23-2.624,0.331  c-0.915,0.109-1.868,0.199-2.854,0.298c-0.986,0.08-2.007,0.181-3.055,0.245c-2.097,0.157-4.31,0.26-6.598,0.281  c-1.145,0.006-2.309-0.003-3.486-0.035c-1.178-0.033-2.37-0.084-3.571-0.134c-2.402-0.111-4.843-0.207-7.283-0.273  c-2.439-0.066-4.878-0.133-7.28-0.199c-2.401-0.06-4.764-0.156-7.05-0.24c-2.285-0.089-4.495-0.164-6.591-0.259  c-2.096-0.093-4.077-0.181-5.905-0.261s-3.504-0.172-4.99-0.245c-1.486-0.073-2.781-0.142-3.848-0.205  c-2.133-0.123-3.352-0.192-3.352-0.192L5.012,35.547z"/><path xmlns="http://www.w3.org/2000/svg" d="M84.988,57.991c0,0-4.877,0.31-12.191,0.772c-3.655,0.223-7.921,0.482-12.49,0.762c-4.565,0.276-9.436,0.572-14.306,0.867  c-2.434,0.155-4.865,0.349-7.254,0.569c-1.196,0.103-2.381,0.214-3.553,0.307c-1.172,0.088-2.329,0.166-3.466,0.225  c-2.277,0.108-4.48,0.149-6.57,0.147c-1.045,0.006-2.061-0.005-3.044-0.007c-0.984-0.02-1.932-0.012-2.846-0.04  c-0.456-0.008-0.903-0.016-1.339-0.024c-0.437-0.012-0.863-0.021-1.279-0.031c-0.833-0.028-1.619-0.037-2.363-0.071  c-1.485-0.048-2.779-0.088-3.845-0.122c-0.538-0.026-1.007-0.024-1.425-0.038c-0.208-0.007-0.402-0.013-0.579-0.019  c-0.175,0-0.334,0-0.477-0.002c-0.572,0.002-0.886-0.008-0.886-0.008l-0.114-0.477c0,0,0.284-0.133,0.832-0.36  c0.137-0.059,0.291-0.127,0.46-0.191c0.171-0.061,0.357-0.127,0.558-0.199c0.403-0.133,0.871-0.31,1.395-0.454  c0.262-0.079,0.539-0.161,0.83-0.242c0.291-0.08,0.596-0.173,0.914-0.249c0.636-0.157,1.326-0.336,2.065-0.495  c0.369-0.082,0.75-0.165,1.144-0.243c0.393-0.078,0.798-0.171,1.213-0.243c0.831-0.149,1.706-0.314,2.62-0.455  c0.912-0.146,1.866-0.281,2.852-0.418c0.493-0.061,0.995-0.123,1.505-0.186c0.509-0.066,1.027-0.123,1.551-0.175  c2.099-0.233,4.314-0.408,6.609-0.497c2.294-0.091,4.668-0.07,7.08-0.024c1.205,0.022,2.42,0.045,3.639,0.066  c0.305,0.006,0.61,0.011,0.916,0.017l0.916,0.006c0.611,0.006,1.223,0.01,1.834,0.016c2.445,0.019,4.89,0.036,7.296,0.055  c2.405,0.016,4.774,0.072,7.065,0.119c2.291,0.052,4.506,0.094,6.605,0.16c2.1,0.064,4.085,0.127,5.917,0.184  c1.832,0.059,3.512,0.129,5,0.185c1.488,0.057,2.786,0.113,3.854,0.165c2.137,0.103,3.358,0.161,3.358,0.161L84.988,57.991z"/><path xmlns="http://www.w3.org/2000/svg" d="M45.05,18.801c0,0-0.138,0.037-0.386,0.126c-0.25,0.087-0.607,0.237-1.039,0.458c-0.43,0.225-0.926,0.542-1.417,0.977  c-0.483,0.44-0.953,1.006-1.265,1.713c-0.316,0.703-0.476,1.533-0.447,2.423c0.004,0.112,0.009,0.224,0.014,0.336  c0.012,0.113,0.023,0.227,0.035,0.342l0.008,0.085l0.004,0.043l0.002,0.022c-0.007-0.063,0-0.011-0.001-0.022l0.002,0.012  l0.033,0.185l0.034,0.187c0.011,0.061,0.02,0.132,0.038,0.173c0.031,0.095,0.062,0.191,0.09,0.287  c0.031,0.097,0.081,0.198,0.12,0.297c0.035,0.104,0.094,0.193,0.146,0.287l0.078,0.141l0.095,0.128  c0.25,0.344,0.567,0.635,0.945,0.845c0.377,0.21,0.809,0.339,1.26,0.387c0.903,0.089,1.879-0.15,2.67-0.68  c0.799-0.52,1.43-1.294,1.808-2.19c0.201-0.443,0.321-0.922,0.419-1.402c0.032-0.244,0.086-0.484,0.093-0.731  c0.009-0.123,0.019-0.246,0.027-0.367c0.007-0.123,0.002-0.247,0.004-0.369c0.001-0.116,0.002-0.231,0.003-0.346  c-0.009-0.131-0.017-0.262-0.026-0.392c-0.01-0.125-0.013-0.267-0.028-0.378c-0.015-0.114-0.028-0.228-0.043-0.34l-0.019-0.17  l-0.034-0.169c-0.022-0.112-0.045-0.225-0.066-0.336c-0.026-0.108-0.061-0.212-0.09-0.319l-0.044-0.158  c-0.018-0.051-0.038-0.1-0.057-0.149c-0.283-0.81-0.798-1.398-1.455-1.683c-0.327-0.149-0.686-0.217-1.037-0.243  s-0.697-0.013-1.023,0.03c-0.653,0.083-1.226,0.238-1.69,0.389c-0.461,0.157-0.825,0.298-1.067,0.404  c-0.243,0.105-0.372,0.167-0.372,0.167s0.108-0.093,0.325-0.249c0.219-0.153,0.541-0.381,0.984-0.621  c0.442-0.238,0.998-0.513,1.693-0.71c0.346-0.104,0.732-0.171,1.151-0.202c0.418-0.028,0.88,0,1.351,0.141  c0.47,0.138,0.939,0.403,1.332,0.77c0.394,0.367,0.713,0.827,0.938,1.32c0.029,0.062,0.063,0.123,0.088,0.186l0.073,0.189  c0.047,0.128,0.099,0.256,0.141,0.386c0.037,0.13,0.073,0.262,0.11,0.394l0.056,0.2l0.041,0.206  c0.027,0.138,0.056,0.278,0.082,0.417c0.027,0.143,0.036,0.261,0.055,0.393c0.017,0.129,0.032,0.259,0.05,0.389  c0.009,0.147,0.018,0.295,0.026,0.444c0.062,1.13-0.053,2.354-0.528,3.516c-0.447,1.167-1.29,2.236-2.383,2.953  c-1.092,0.715-2.44,1.053-3.746,0.881c-0.651-0.083-1.29-0.3-1.85-0.647c-0.561-0.343-1.035-0.817-1.369-1.355l-0.127-0.2  l-0.103-0.21c-0.066-0.14-0.139-0.277-0.183-0.423c-0.048-0.146-0.104-0.282-0.142-0.433c-0.033-0.153-0.065-0.306-0.099-0.457  c-0.019-0.082-0.02-0.138-0.028-0.202l-0.019-0.189l-0.019-0.188l-0.006-0.057l-0.001-0.025l-0.001-0.05l-0.003-0.101  c-0.003-0.134-0.006-0.267-0.009-0.399c0.006-0.133,0.012-0.266,0.018-0.396c0.039-0.525,0.112-1.037,0.261-1.517  c0.146-0.478,0.34-0.926,0.578-1.323c0.479-0.798,1.115-1.372,1.717-1.77c0.609-0.396,1.193-0.625,1.675-0.777  c0.482-0.153,0.875-0.213,1.14-0.25C44.907,18.802,45.05,18.801,45.05,18.801z"/><path xmlns="http://www.w3.org/2000/svg" d="M48.212,44.353c0,0-0.131-0.022-0.374-0.052c-0.243-0.031-0.602-0.061-1.054-0.08c-0.45-0.017-1-0.001-1.607,0.077  c-0.605,0.086-1.275,0.247-1.894,0.583c-0.306,0.171-0.598,0.381-0.852,0.64c-0.256,0.257-0.465,0.568-0.634,0.915  c-0.175,0.342-0.286,0.736-0.371,1.145c-0.032,0.211-0.074,0.418-0.087,0.638c-0.008,0.11-0.022,0.219-0.028,0.33  c-0.001,0.11-0.003,0.223-0.005,0.336l-0.003,0.171l-0.001,0.042v0.01c0-0.048,0-0.006,0-0.014l0.001,0.022l0.005,0.092  c0.005,0.123,0.011,0.248,0.016,0.372c0.002,0.131,0.019,0.231,0.031,0.339c0.014,0.106,0.024,0.211,0.041,0.317  c0.081,0.437,0.2,0.859,0.377,1.229c0.177,0.372,0.431,0.67,0.727,0.889c0.301,0.218,0.663,0.349,1.06,0.391  c0.8,0.097,1.701-0.167,2.473-0.607c0.776-0.444,1.432-1.085,1.889-1.799c0.232-0.358,0.392-0.746,0.515-1.133l0.043-0.146  l0.021-0.072l0.004-0.008c0.004-0.028-0.005,0.025-0.002,0.016l0.004-0.022l0.008-0.042c0.022-0.114,0.043-0.228,0.065-0.342  c0.021-0.191,0.046-0.364,0.047-0.565c0.019-0.772-0.208-1.493-0.599-2.084c-0.382-0.595-0.885-1.069-1.37-1.44  c-0.487-0.374-0.958-0.655-1.356-0.867c-0.401-0.208-0.726-0.362-0.954-0.455c-0.225-0.095-0.349-0.141-0.349-0.141  s0.131,0.01,0.375,0.05c0.245,0.043,0.604,0.109,1.05,0.245c0.446,0.136,0.987,0.322,1.574,0.636  c0.585,0.311,1.227,0.746,1.789,1.406c0.279,0.329,0.532,0.716,0.721,1.162c0.188,0.44,0.307,0.935,0.348,1.444  c0.027,0.249,0.015,0.531,0.001,0.799c-0.012,0.114-0.024,0.229-0.036,0.346l-0.005,0.042l-0.002,0.022l-0.01,0.052l-0.019,0.097  l-0.039,0.197c-0.112,0.523-0.303,1.044-0.57,1.531c-0.266,0.486-0.604,0.941-0.994,1.352c-0.101,0.101-0.196,0.207-0.304,0.3  c-0.106,0.095-0.213,0.191-0.323,0.284c-0.114,0.086-0.229,0.173-0.345,0.259c-0.118,0.083-0.241,0.159-0.363,0.237  c-0.496,0.305-1.037,0.556-1.622,0.711c-0.583,0.156-1.21,0.231-1.853,0.158c-0.638-0.072-1.292-0.308-1.832-0.71  c-0.541-0.4-0.941-0.949-1.194-1.511c-0.256-0.563-0.385-1.141-0.458-1.7c-0.015-0.143-0.023-0.287-0.033-0.431  c-0.01-0.145-0.022-0.291-0.017-0.408c0.002-0.124,0.003-0.249,0.005-0.372l0.001-0.093l0.001-0.023v-0.038l0.001-0.013l0.004-0.048  l0.016-0.199c0.011-0.131,0.022-0.262,0.032-0.393c0.016-0.131,0.04-0.262,0.059-0.393c0.031-0.257,0.102-0.515,0.165-0.767  c0.15-0.5,0.327-0.993,0.607-1.428c0.271-0.434,0.594-0.83,0.976-1.13c0.379-0.302,0.786-0.528,1.19-0.687  c0.816-0.308,1.59-0.367,2.253-0.352c0.665,0.022,1.228,0.124,1.682,0.229c0.454,0.104,0.798,0.227,1.031,0.31  C48.092,44.296,48.212,44.353,48.212,44.353z"/><path xmlns="http://www.w3.org/2000/svg" d="M70.339,19.065c0,0-0.129,0.02-0.366,0.064c-0.237,0.042-0.584,0.119-1.019,0.223c-0.434,0.105-0.953,0.257-1.527,0.466  c-0.288,0.105-0.589,0.223-0.895,0.368c-0.155,0.068-0.305,0.152-0.463,0.228c-0.149,0.09-0.312,0.168-0.46,0.271  c-0.61,0.381-1.195,0.89-1.578,1.535c-0.196,0.32-0.322,0.68-0.402,1.057c-0.016,0.096-0.032,0.191-0.048,0.288  c-0.006,0.099-0.013,0.199-0.019,0.299c-0.002,0.05-0.01,0.099-0.008,0.15l0.008,0.154c0.006,0.103,0.005,0.205,0.017,0.309  c0.015,0.104,0.031,0.209,0.046,0.315l0.023,0.158l0.037,0.16c0.024,0.106,0.049,0.213,0.073,0.321  c0.025,0.107,0.066,0.214,0.099,0.321c0.031,0.099,0.063,0.198,0.095,0.298l0.069,0.173l0.035,0.087l0.018,0.044l0.016,0.031  c0.047,0.081,0.072,0.16,0.13,0.248l0.074,0.128c0.026,0.042,0.057,0.08,0.084,0.12c0.222,0.321,0.511,0.553,0.839,0.713  c0.331,0.159,0.719,0.23,1.13,0.225c0.412-0.006,0.843-0.082,1.263-0.223c0.421-0.137,0.835-0.325,1.224-0.554  c0.776-0.458,1.464-1.064,1.971-1.746c0.255-0.34,0.458-0.703,0.612-1.068c0.147-0.368,0.232-0.743,0.257-1.11  c0.054-0.736-0.188-1.436-0.569-2.016c-0.385-0.579-0.878-1.048-1.355-1.417c-0.478-0.37-0.933-0.664-1.321-0.881  c-0.192-0.114-0.37-0.205-0.522-0.289c-0.153-0.085-0.287-0.151-0.396-0.204c-0.216-0.11-0.332-0.168-0.332-0.168  s0.127,0.027,0.364,0.08c0.119,0.027,0.266,0.061,0.435,0.109c0.171,0.045,0.368,0.099,0.583,0.176  c0.436,0.141,0.96,0.339,1.533,0.648c0.289,0.152,0.584,0.342,0.887,0.561c0.299,0.226,0.596,0.493,0.878,0.812  c0.278,0.321,0.529,0.704,0.72,1.142c0.191,0.438,0.309,0.936,0.326,1.452c0.021,0.516-0.061,1.044-0.214,1.553  c-0.158,0.508-0.401,0.991-0.691,1.444c-0.29,0.456-0.645,0.87-1.036,1.252c-0.195,0.193-0.404,0.371-0.619,0.546  c-0.221,0.167-0.446,0.331-0.685,0.478c-0.476,0.296-0.984,0.557-1.537,0.738c-0.549,0.187-1.139,0.306-1.754,0.318  c-0.615,0.004-1.265-0.111-1.855-0.401c-0.592-0.286-1.095-0.752-1.435-1.271c-0.043-0.065-0.088-0.129-0.127-0.195l-0.109-0.201  c-0.076-0.127-0.138-0.286-0.201-0.429l-0.022-0.054l-0.016-0.044l-0.03-0.088l-0.062-0.177l-0.014-0.038l-0.004-0.012l-0.006-0.024  l-0.014-0.049l-0.026-0.099l-0.053-0.196c-0.149-0.518-0.225-1.063-0.255-1.604c-0.005-0.136,0.003-0.274,0.005-0.41l0.005-0.203  c0.002-0.067,0.015-0.136,0.022-0.204c0.018-0.136,0.034-0.271,0.055-0.404c0.033-0.132,0.066-0.264,0.101-0.396  c0.156-0.516,0.378-1.009,0.688-1.415c0.308-0.405,0.653-0.753,1.026-1.024c0.373-0.266,0.747-0.495,1.124-0.658  c0.747-0.347,1.467-0.522,2.099-0.644c0.634-0.118,1.19-0.159,1.646-0.179c0.455-0.023,0.814-0.006,1.057,0.004  C70.21,19.048,70.339,19.065,70.339,19.065z"/><path xmlns="http://www.w3.org/2000/svg" d="M50.451,64.505c0,0-0.026,0.049-0.08,0.137c-0.054,0.087-0.13,0.22-0.234,0.379c-0.206,0.319-0.515,0.762-0.909,1.269  c-0.393,0.508-0.873,1.077-1.411,1.66c-0.132,0.146-0.271,0.294-0.413,0.44c-0.14,0.147-0.284,0.298-0.432,0.442  c-0.292,0.298-0.599,0.588-0.904,0.88c-0.312,0.283-0.622,0.571-0.938,0.841c-0.156,0.139-0.313,0.271-0.472,0.4  c-0.157,0.131-0.311,0.261-0.467,0.384c-0.62,0.495-1.221,0.936-1.754,1.292c-0.532,0.357-0.996,0.636-1.33,0.818  c-0.166,0.093-0.303,0.159-0.394,0.207c-0.092,0.047-0.143,0.068-0.143,0.068s0.025-0.048,0.078-0.137  c0.054-0.086,0.129-0.219,0.233-0.378c0.207-0.32,0.515-0.765,0.908-1.271c0.394-0.507,0.874-1.076,1.412-1.66  c0.133-0.148,0.273-0.291,0.414-0.44c0.14-0.148,0.284-0.296,0.432-0.442c0.292-0.296,0.6-0.585,0.905-0.877  c0.312-0.284,0.623-0.571,0.938-0.841c0.156-0.137,0.314-0.27,0.472-0.4c0.156-0.131,0.311-0.26,0.468-0.383  c0.619-0.496,1.221-0.935,1.753-1.293c0.533-0.358,0.996-0.634,1.33-0.819c0.165-0.092,0.303-0.158,0.393-0.207  C50.399,64.527,50.451,64.505,50.451,64.505z"/><path xmlns="http://www.w3.org/2000/svg" d="M50.451,73.723c0,0-0.052-0.021-0.144-0.068c-0.09-0.048-0.228-0.114-0.393-0.207c-0.334-0.185-0.797-0.463-1.33-0.82  c-0.532-0.356-1.134-0.795-1.753-1.292c-0.157-0.123-0.312-0.251-0.468-0.382c-0.158-0.131-0.316-0.264-0.472-0.4  c-0.316-0.271-0.626-0.558-0.938-0.841c-0.306-0.292-0.613-0.582-0.905-0.88c-0.148-0.145-0.292-0.293-0.432-0.44  c-0.141-0.148-0.281-0.294-0.414-0.44c-0.538-0.583-1.018-1.152-1.412-1.659c-0.393-0.508-0.701-0.952-0.908-1.271  c-0.104-0.159-0.179-0.292-0.233-0.379c-0.053-0.088-0.078-0.137-0.078-0.137s0.05,0.022,0.143,0.068  c0.09,0.049,0.228,0.113,0.394,0.207c0.334,0.184,0.797,0.461,1.33,0.819c0.533,0.355,1.135,0.795,1.754,1.291  c0.156,0.123,0.31,0.254,0.467,0.383c0.159,0.131,0.315,0.264,0.472,0.402c0.316,0.27,0.625,0.557,0.938,0.841  c0.306,0.292,0.612,0.581,0.904,0.879c0.147,0.145,0.292,0.294,0.432,0.442c0.142,0.147,0.281,0.292,0.413,0.441  c0.538,0.583,1.019,1.152,1.411,1.659c0.395,0.507,0.703,0.949,0.909,1.27c0.104,0.159,0.181,0.292,0.234,0.378  C50.425,73.675,50.451,73.723,50.451,73.723z"/><path xmlns="http://www.w3.org/2000/svg" d="M11.202,43.036c0,0,0.054,0.018,0.153,0.055c0.098,0.04,0.246,0.093,0.424,0.17c0.362,0.153,0.867,0.385,1.452,0.693  c0.586,0.307,1.251,0.689,1.943,1.126c0.174,0.108,0.348,0.223,0.523,0.338c0.176,0.115,0.354,0.233,0.529,0.356  c0.355,0.241,0.707,0.497,1.059,0.752c0.347,0.264,0.696,0.525,1.029,0.795c0.169,0.131,0.334,0.266,0.495,0.402  c0.162,0.135,0.323,0.266,0.476,0.4c0.621,0.535,1.18,1.061,1.644,1.531s0.833,0.887,1.084,1.188  c0.126,0.149,0.219,0.275,0.286,0.358c0.065,0.082,0.098,0.131,0.098,0.131s-0.055-0.019-0.154-0.057  c-0.098-0.038-0.246-0.091-0.425-0.169c-0.362-0.152-0.867-0.384-1.452-0.692c-0.586-0.306-1.251-0.688-1.942-1.126  c-0.175-0.106-0.347-0.224-0.523-0.338c-0.177-0.115-0.353-0.233-0.529-0.358c-0.355-0.239-0.706-0.497-1.058-0.754  c-0.347-0.262-0.696-0.523-1.029-0.793c-0.169-0.133-0.333-0.268-0.494-0.402c-0.162-0.135-0.322-0.268-0.476-0.402  c-0.621-0.535-1.179-1.061-1.644-1.532c-0.464-0.471-0.833-0.886-1.084-1.187c-0.127-0.15-0.22-0.275-0.287-0.357  C11.234,43.083,11.202,43.036,11.202,43.036z"/><path xmlns="http://www.w3.org/2000/svg" d="M21.475,42.246c0,0-0.023,0.054-0.067,0.156c-0.047,0.1-0.11,0.25-0.202,0.434c-0.18,0.369-0.452,0.883-0.806,1.479  c-0.353,0.595-0.788,1.271-1.282,1.974c-0.122,0.178-0.25,0.353-0.38,0.531c-0.129,0.179-0.261,0.358-0.399,0.537  c-0.27,0.36-0.556,0.717-0.84,1.072c-0.292,0.353-0.581,0.706-0.879,1.042c-0.146,0.171-0.294,0.338-0.443,0.501  c-0.148,0.163-0.293,0.326-0.442,0.481c-0.586,0.627-1.16,1.19-1.671,1.657s-0.96,0.837-1.285,1.089  c-0.161,0.126-0.295,0.219-0.383,0.285c-0.089,0.066-0.14,0.099-0.14,0.099s0.021-0.057,0.067-0.157  c0.046-0.101,0.11-0.251,0.202-0.435c0.18-0.368,0.451-0.883,0.805-1.479c0.353-0.596,0.788-1.271,1.281-1.974  c0.122-0.177,0.251-0.352,0.381-0.531c0.129-0.179,0.262-0.357,0.399-0.537c0.269-0.359,0.556-0.714,0.841-1.072  c0.292-0.352,0.582-0.704,0.88-1.04c0.146-0.171,0.295-0.338,0.444-0.501c0.147-0.163,0.293-0.325,0.442-0.48  c0.587-0.626,1.161-1.191,1.671-1.658c0.511-0.468,0.959-0.838,1.284-1.09c0.16-0.127,0.295-0.22,0.383-0.286  C21.426,42.279,21.475,42.246,21.475,42.246z"/></g><g id="SvgjsG2363" featureKey="Yxc9Rz-0" transform="matrix(1.473069770225723,0,0,1.473069770225723,118.23231620548769,23.222192708974653)" fill="#000000"><path d="M1.2 19.5 l0 -14.08 l0.14 -0.14 l1.18 0 q0.92 0 1.32 0.42 t0.4 1.46 l0 3.34 q1.04 -0.68 2.32 -0.68 q1.76 0 2.65 1.42 t0.89 3.82 q0 1.14 -0.36 2.08 t-1 1.62 t-1.56 1.05 t-2.02 0.37 q-2.28 0 -3.96 -0.68 z M5.62 12.32 q-0.78 0 -1.38 0.66 l0 4.88 q0.2 0.04 0.43 0.06 t0.49 0.02 q1.74 0 1.74 -3.02 q0 -2.58 -1.28 -2.6 z M19.1 10.9 q1.44 1.44 1.44 4.12 q0 1.2 -0.31 2.18 t-0.9 1.67 t-1.45 1.06 t-1.98 0.37 t-1.97 -0.38 t-1.44 -1.07 t-0.89 -1.67 t-0.3 -2.16 q0 -1.2 0.3 -2.17 t0.88 -1.67 t1.44 -1.08 t1.98 -0.38 q1.98 0 3.2 1.18 z M15.920000000000002 12.059999999999999 q-0.44 0 -0.71 0.21 t-0.43 0.57 t-0.22 0.83 t-0.06 1.01 q0 0.84 0.05 1.45 t0.2 1.02 t0.42 0.61 t0.71 0.2 q0.88 0 1.16 -0.77 t0.28 -2.19 q0 -1.44 -0.28 -2.19 t-1.12 -0.75 z M21.740000000000002 11.46 q0.1 -0.4 0.38 -0.89 t0.56 -0.71 q1.84 0.14 2.56 1.82 q0.76 -1.8 2.5 -1.8 q0.52 0 1.32 0.16 q0 0.62 -0.21 1.47 t-0.57 1.45 q-0.34 -0.12 -1.02 -0.2 q-1 0 -1.64 1.02 l0 6.22 q-0.66 0.12 -1.55 0.12 t-1.57 -0.12 l0 -6.46 q0 -1.5 -0.76 -2.08 z M37.760000000000005 16.02 l-5.22 0 q0.04 0.9 0.46 1.4 t1.38 0.5 q0.48 0 1.11 -0.14 t1.45 -0.46 q0.66 0.68 0.82 1.84 q-1.6 1.14 -3.92 1.14 q-1.26 0 -2.11 -0.4 t-1.38 -1.12 t-0.75 -1.7 t-0.22 -2.14 q0 -1.12 0.27 -2.07 t0.82 -1.65 t1.4 -1.1 t1.99 -0.4 q0.96 0 1.73 0.32 t1.31 0.88 t0.83 1.34 t0.29 1.7 q0 1.22 -0.26 2.06 z M32.52 13.86 l2.64 0 l0 -0.22 q0 -0.74 -0.33 -1.22 t-0.99 -0.48 q-0.64 0 -0.95 0.45 t-0.37 1.47 z M43.36 9.82 q0.96 0 1.86 0.44 l0 -4.84 l0.12 -0.14 l1.22 0 q0.96 0 1.33 0.42 t0.37 1.46 l0 9.96 q0 1.06 0.56 1.44 q-0.1 0.42 -0.38 0.9 t-0.58 0.7 q-1.46 -0.04 -2.14 -1.12 q-1.2 1.26 -2.88 1.26 t-2.58 -1.4 t-0.9 -3.84 q0 -1.2 0.31 -2.17 t0.85 -1.65 t1.27 -1.05 t1.57 -0.37 z M43.76 17.78 q0.82 0 1.46 -0.78 l0 -4.38 q-0.82 -0.48 -1.3 -0.48 q-1.36 0 -1.36 3 q0 2.64 1.2 2.64 z M61.18 10.66 q0.68 -0.76 1.88 -0.8 q0.32 0.24 0.61 0.72 t0.35 0.88 q-0.56 0.38 -0.56 1.44 l0 5.28 q0 1.84 -0.29 3.05 t-0.88 1.92 t-1.49 0.99 t-2.12 0.28 q-2.06 0 -3.76 -0.66 q0 -0.56 0.22 -1.22 t0.54 -1.04 q1.34 0.6 2.72 0.6 q2.02 0 2.02 -2.02 l0 -0.66 q-1.08 0.78 -2.28 0.78 q-1.78 0 -2.69 -1.41 t-0.91 -3.83 q0 -1.22 0.31 -2.19 t0.85 -1.65 t1.25 -1.04 t1.51 -0.36 q1.62 0 2.72 0.94 z M60.42 17 l0 -4.28 q-0.7 -0.68 -1.32 -0.68 q-1.36 0 -1.36 3 q0 2.64 1.18 2.64 q0.82 0 1.5 -0.68 z M74.30000000000001 18.56 q-0.1 0.42 -0.38 0.9 t-0.58 0.7 q-1.4 -0.04 -2.16 -1.06 q-1.3 1.2 -2.82 1.2 q-0.78 0 -1.36 -0.25 t-0.98 -0.67 t-0.6 -0.97 t-0.2 -1.15 q0 -0.86 0.31 -1.51 t0.85 -1.08 t1.26 -0.65 t1.54 -0.22 q0.46 0 0.81 0.01 t0.61 0.03 l0 -0.38 q0 -1.26 -1.3 -1.26 q-0.84 0 -2.94 0.64 q-0.6 -0.7 -0.76 -2.18 q0.48 -0.18 1.07 -0.34 t1.21 -0.28 t1.22 -0.19 t1.08 -0.07 q0.7 0 1.35 0.2 t1.14 0.61 t0.78 1.06 t0.29 1.55 l0 4.06 q0 0.92 0.56 1.3 z M68.26 17.06 q0 0.94 1.08 0.94 q0.56 0 1.26 -0.58 l0 -1.6 q-0.4 -0.02 -0.67 -0.03 t-0.41 -0.01 q-1.26 0 -1.26 1.28 z M81.42000000000002 13.98 q0 -1.34 -0.9 -1.34 q-0.32 0 -0.65 0.19 t-0.67 0.49 l0 6.68 q-0.34 0.06 -0.74 0.09 t-0.82 0.03 t-0.82 -0.03 t-0.74 -0.09 l0 -9.98 l0.14 -0.14 l1.16 0 q1.28 0 1.68 1.26 q1.42 -1.3 2.76 -1.3 q1.62 0 2.34 1.38 q1.56 -1.38 2.96 -1.38 t2.09 0.87 t0.69 2.31 l0 4.48 q0 1.3 0.5 1.98 q-0.76 0.68 -1.82 0.68 q-1.04 0 -1.42 -0.48 t-0.38 -1.46 l0 -4.26 q0 -1.32 -0.94 -1.32 q-0.58 0 -1.28 0.7 l0 6.66 q-0.34 0.06 -0.74 0.09 t-0.82 0.03 t-0.83 -0.03 t-0.75 -0.09 l0 -6.02 z M100.02000000000001 16.02 l-5.22 0 q0.04 0.9 0.46 1.4 t1.38 0.5 q0.48 0 1.11 -0.14 t1.45 -0.46 q0.66 0.68 0.82 1.84 q-1.6 1.14 -3.92 1.14 q-1.26 0 -2.11 -0.4 t-1.38 -1.12 t-0.75 -1.7 t-0.22 -2.14 q0 -1.12 0.27 -2.07 t0.82 -1.65 t1.4 -1.1 t1.99 -0.4 q0.96 0 1.73 0.32 t1.31 0.88 t0.83 1.34 t0.29 1.7 q0 1.22 -0.26 2.06 z M94.78 13.86 l2.64 0 l0 -0.22 q0 -0.74 -0.33 -1.22 t-0.99 -0.48 q-0.64 0 -0.95 0.45 t-0.37 1.47 z M101.38000000000001 19.32 q0.02 -0.52 0.27 -1.14 t0.59 -0.98 q1.6 0.84 2.78 0.84 q0.56 0 0.86 -0.19 t0.3 -0.51 q0 -0.6 -0.92 -0.9 l-1.1 -0.42 q-2.5 -0.92 -2.5 -3 q0 -1.52 1.05 -2.41 t2.83 -0.89 q0.88 0 1.94 0.25 t1.74 0.59 q0.04 0.56 -0.22 1.23 t-0.64 0.95 q-1.68 -0.76 -2.8 -0.76 q-0.4 0 -0.61 0.18 t-0.21 0.46 q0 0.48 0.76 0.76 l1.24 0.44 q2.66 0.94 2.66 3.22 q0 1.5 -1.1 2.38 t-3.14 0.88 t-3.78 -0.98 z"/></g><g id="SvgjsG2364" featureKey="zc75Em-0" transform="matrix(0.3834086268283217,0,0,0.3834086268283217,119.42488705975752,66.89892821343054)" fill="#000000"><path d="M6.54 5.84 c1.5067 0 2.8134 0.31 3.92 0.93 s1.9533 1.47 2.54 2.55 s0.88 2.28 0.88 3.6 s-0.32666 2.5234 -0.98 3.61 s-1.5667 1.9367 -2.74 2.55 s-2.48 0.92 -3.92 0.92 l-4.74 0 l0 -14.16 l5.04 0 z M5.94 18.2 c1.08 0 2.07 -0.21002 2.97 -0.63002 s1.6133 -1.0233 2.14 -1.81 s0.79 -1.7333 0.79 -2.84 c0 -1.6 -0.49666 -2.88 -1.49 -3.84 s-2.31 -1.44 -3.95 -1.44 l-2.98 0 l0 10.56 l2.52 0 z M31.340000000000003 5.84 l0 14.16 l-1.92 0 l0 -14.16 l1.92 0 z M51.82000000000001 5.48 c1.84 0 3.2 0.54006 4.08 1.6201 l-1.56 1.42 c-0.24 -0.37334 -0.58 -0.67334 -1.02 -0.9 s-0.94666 -0.34 -1.52 -0.34 c-0.82666 0 -1.49 0.20334 -1.99 0.61 s-0.75 0.93 -0.75 1.57 c0 1.0667 0.70666 1.8133 2.12 2.24 l1.78 0.58 c1 0.32 1.7633 0.76666 2.29 1.34 s0.79 1.36 0.79 2.36 c0 1.3067 -0.46334 2.3634 -1.39 3.17 s-2.1034 1.21 -3.53 1.21 c-2.04 0 -3.5466 -0.65334 -4.52 -1.96 l1.58 -1.36 c0.30666 0.48 0.72666 0.85334 1.26 1.12 s1.1133 0.4 1.74 0.4 c0.78666 0 1.4533 -0.22666 2 -0.68 s0.82 -1.0133 0.82 -1.68 c0 -0.49334 -0.16666 -0.90668 -0.5 -1.24 s-0.93334 -0.63334 -1.8 -0.9 l-1.26 -0.42 c-1.2667 -0.42666 -2.1534 -0.97 -2.66 -1.63 s-0.76 -1.51 -0.76 -2.55 c0 -1.1067 0.44666 -2.0466 1.34 -2.82 s2.0466 -1.16 3.46 -1.16 z M78.16 5.48 c1 0 1.9367 0.18664 2.81 0.55998 s1.59 0.92 2.15 1.64 l-1.6 1.22 c-0.86666 -1.08 -2.0066 -1.62 -3.42 -1.62 c-1.5333 0 -2.7966 0.54666 -3.79 1.64 s-1.49 2.4666 -1.49 4.12 c0 1.6 0.49 2.92 1.47 3.96 s2.25 1.56 3.81 1.56 s2.7934 -0.63334 3.7 -1.9 l1.62 1.22 c-0.56 0.74666 -1.3067 1.3467 -2.24 1.8 s-1.9733 0.68 -3.12 0.68 c-1.36 0 -2.5934 -0.33 -3.7 -0.99 s-1.98 -1.5667 -2.62 -2.72 s-0.96 -2.3634 -0.96 -3.63 c0 -2.1866 0.68666 -3.99 2.06 -5.41 s3.1466 -2.13 5.32 -2.13 z M105.02000000000001 5.48 c2.1066 0 3.8634 0.69998 5.27 2.1 s2.11 3.18 2.11 5.34 c0 1.3733 -0.31334 2.63 -0.94 3.77 s-1.51 2.0366 -2.65 2.69 s-2.4034 0.98 -3.79 0.98 c-1.3733 0 -2.6266 -0.32334 -3.76 -0.97 s-2.02 -1.54 -2.66 -2.68 s-0.96 -2.4034 -0.96 -3.79 c0 -2.1066 0.69 -3.8734 2.07 -5.3 s3.15 -2.14 5.31 -2.14 z M99.68 12.92 c0 1.6 0.49998 2.94 1.5 4.02 s2.28 1.62 3.84 1.62 c1.5333 0 2.8066 -0.53334 3.82 -1.6 s1.52 -2.4134 1.52 -4.04 c0 -1.6133 -0.5 -2.9566 -1.5 -4.03 s-2.2866 -1.61 -3.86 -1.61 c-1.52 0 -2.7866 0.53334 -3.8 1.6 s-1.52 2.4134 -1.52 4.04 z M128.22 5.84 l4.16 11.52 l0.04 0 l4.32 -11.52 l2.1 0 l-5.58 14.16 l-1.8 0 l-5.46 -14.16 l2.22 0 z M162.46 5.84 l0 1.8 l-7.22 0 l0 4.22 l6.72 0 l0 1.8 l-6.72 0 l0 4.54 l7.58 0 l0 1.8 l-9.5 0 l0 -14.16 l9.14 0 z M183.4 5.84 c1.3867 0 2.4734 0.34666 3.26 1.04 s1.18 1.6667 1.18 2.92 c0 0.94666 -0.32334 1.7733 -0.97 2.48 s-1.4767 1.1267 -2.49 1.26 l-0.02 0 l4.02 6.46 l-2.4 0 l-3.6 -6.24 l-2.14 0 l0 6.24 l-1.92 0 l0 -14.16 l5.08 0 z M182.84 12.08 c1 0 1.7433 -0.18336 2.23 -0.55002 s0.73 -0.94332 0.73 -1.73 c0 -1.52 -0.98666 -2.28 -2.96 -2.28 l-2.6 0 l0 4.56 l2.6 0 z M231.1 5.84 l0 1.8 l-4.56 0 l0 12.36 l-1.92 0 l0 -12.36 l-4.56 0 l0 -1.8 l11.04 0 z M247.84 5.84 l0 5.88 l7.34 0 l0 -5.88 l1.92 0 l0 14.16 l-1.92 0 l0 -6.48 l-7.34 0 l0 6.48 l-1.92 0 l0 -14.16 l1.92 0 z M282.65999999999997 5.84 l0 1.8 l-7.22 0 l0 4.22 l6.72 0 l0 1.8 l-6.72 0 l0 4.54 l7.58 0 l0 1.8 l-9.5 0 l0 -14.16 l9.14 0 z M321.85999999999996 5.84 c1.2933 0 2.32 0.32 3.08 0.96 s1.14 1.5 1.14 2.58 c0 1.5333 -0.81334 2.5734 -2.44 3.12 l0 0.04 l0.02 0 c0.92 0.10666 1.6567 0.49 2.21 1.15 s0.83 1.45 0.83 2.37 c0 1.1867 -0.45666 2.14 -1.37 2.86 s-2.09 1.08 -3.53 1.08 l-4.94 0 l0 -14.16 l5 0 z M321.46 11.72 c0.8 0 1.43 -0.18334 1.89 -0.55 s0.69 -0.89 0.69 -1.57 c0 -0.64 -0.2 -1.1467 -0.6 -1.52 s-0.92666 -0.56 -1.58 -0.56 l-3.08 0 l0 4.2 l2.68 0 z M321.67999999999995 18.32 c0.94666 0 1.68 -0.22 2.2 -0.66 s0.78 -1.02 0.78 -1.74 c0 -0.8 -0.26334 -1.42 -0.79 -1.86 s-1.27 -0.66 -2.23 -0.66 l-2.86 0 l0 4.92 l2.9 0 z M351.37999999999994 5.84 l0 1.8 l-7.22 0 l0 4.22 l6.72 0 l0 1.8 l-6.72 0 l0 4.54 l7.58 0 l0 1.8 l-9.5 0 l0 -14.16 l9.14 0 z M371.29999999999995 5.48 c1.84 0 3.2 0.54006 4.08 1.6201 l-1.56 1.42 c-0.24 -0.37334 -0.58 -0.67334 -1.02 -0.9 s-0.94666 -0.34 -1.52 -0.34 c-0.82666 0 -1.49 0.20334 -1.99 0.61 s-0.75 0.93 -0.75 1.57 c0 1.0667 0.70666 1.8133 2.12 2.24 l1.78 0.58 c1 0.32 1.7633 0.76666 2.29 1.34 s0.79 1.36 0.79 2.36 c0 1.3067 -0.46334 2.3634 -1.39 3.17 s-2.1034 1.21 -3.53 1.21 c-2.04 0 -3.5466 -0.65334 -4.52 -1.96 l1.58 -1.36 c0.30666 0.48 0.72666 0.85334 1.26 1.12 s1.1133 0.4 1.74 0.4 c0.78666 0 1.4533 -0.22666 2 -0.68 s0.82 -1.0133 0.82 -1.68 c0 -0.49334 -0.16666 -0.90668 -0.5 -1.24 s-0.93334 -0.63334 -1.8 -0.9 l-1.26 -0.42 c-1.2667 -0.42666 -2.1534 -0.97 -2.66 -1.63 s-0.76 -1.51 -0.76 -2.55 c0 -1.1067 0.44666 -2.0466 1.34 -2.82 s2.0466 -1.16 3.46 -1.16 z M400.5799999999999 5.84 l0 1.8 l-4.56 0 l0 12.36 l-1.92 0 l0 -12.36 l-4.56 0 l0 -1.8 l11.04 0 z"/></g>
			</g>
		</svg>
	